<?xml version="1.0" encoding="utf-8" standalone="no"?>
<!DOCTYPE svg PUBLIC "-//W3C//DTD SVG 1.1//EN"
  "http://www.w3.org/Graphics/SVG/1.1/DTD/svg11.dtd">
<svg xmlns:xlink="http://www.w3.org/1999/xlink" width="576pt" height="432pt" viewBox="0 0 576 432" xmlns="http://www.w3.org/2000/svg" version="1.1">
 <metadata>
  <rdf:RDF xmlns:dc="http://purl.org/dc/elements/1.1/" xmlns:cc="http://creativecommons.org/ns#" xmlns:rdf="http://www.w3.org/1999/02/22-rdf-syntax-ns#">
   <cc:Work>
    <dc:type rdf:resource="http://purl.org/dc/dcmitype/StillImage"/>
    <dc:date>2024-12-26T17:40:53.857507</dc:date>
    <dc:format>image/svg+xml</dc:format>
    <dc:creator>
     <cc:Agent>
      <dc:title>Matplotlib v3.9.2, https://matplotlib.org/</dc:title>
     </cc:Agent>
    </dc:creator>
   </cc:Work>
  </rdf:RDF>
 </metadata>
 <defs>
  <style type="text/css">*{stroke-linejoin: round; stroke-linecap: butt}</style>
 </defs>
 <g id="figure_1">
  <g id="patch_1">
   <path d="M 0 432 
L 576 432 
L 576 0 
L 0 0 
z
" style="fill: #ffffff"/>
  </g>
  <g id="axes_1">
   <g id="patch_2">
    <path d="M 450.299744 233.584744 
C 450.299744 211.565111 445.962357 189.75959 437.535808 169.416102 
C 429.109259 149.072613 416.757424 130.586785 401.187192 115.016553 
C 385.616959 99.446321 367.131132 87.094486 346.787643 78.667937 
C 326.444154 70.241388 304.638634 65.904 282.619 65.904 
C 260.599366 65.904 238.793846 70.241388 218.450357 78.667937 
C 198.106868 87.094486 179.621041 99.446321 164.050808 115.016553 
C 148.480576 130.586785 136.128741 149.072613 127.702192 169.416102 
C 119.275643 189.75959 114.938256 211.565111 114.938256 233.584744 
C 114.938256 255.604378 119.275643 277.409899 127.702192 297.753387 
C 136.128741 318.096876 148.480576 336.582704 164.050808 352.152936 
C 179.621041 367.723168 198.106868 380.075003 218.450357 388.501552 
C 238.793846 396.928101 260.599366 401.265489 282.619 401.265489 
C 304.638634 401.265489 326.444154 396.928101 346.787643 388.501552 
C 367.131132 380.075003 385.616959 367.723168 401.187192 352.152936 
C 416.757424 336.582704 429.109259 318.096876 437.535808 297.753387 
C 445.962357 277.409899 450.299744 255.604378 450.299744 233.584744 
M 282.619 233.584744 
C 282.619 233.584744 282.619 233.584744 282.619 233.584744 
C 282.619 233.584744 282.619 233.584744 282.619 233.584744 
C 282.619 233.584744 282.619 233.584744 282.619 233.584744 
C 282.619 233.584744 282.619 233.584744 282.619 233.584744 
C 282.619 233.584744 282.619 233.584744 282.619 233.584744 
C 282.619 233.584744 282.619 233.584744 282.619 233.584744 
C 282.619 233.584744 282.619 233.584744 282.619 233.584744 
C 282.619 233.584744 282.619 233.584744 282.619 233.584744 
C 282.619 233.584744 282.619 233.584744 282.619 233.584744 
C 282.619 233.584744 282.619 233.584744 282.619 233.584744 
C 282.619 233.584744 282.619 233.584744 282.619 233.584744 
C 282.619 233.584744 282.619 233.584744 282.619 233.584744 
C 282.619 233.584744 282.619 233.584744 282.619 233.584744 
C 282.619 233.584744 282.619 233.584744 282.619 233.584744 
C 282.619 233.584744 282.619 233.584744 282.619 233.584744 
C 282.619 233.584744 282.619 233.584744 282.619 233.584744 
z
" style="fill: #ffffff"/>
   </g>
   <g id="patch_3">
    <path d="M 390.493612 233.584744 
L 340.499137 191.532363 
L 300.927391 177.237312 
L 252.651965 141.355693 
L 176.128591 156.214934 
L 179.495342 233.584744 
L 201.90334 292.228104 
L 238.316149 369.934899 
L 310.772468 320.232211 
L 405.614292 322.946055 
z
" clip-path="url(#p4e3f0d7053)" style="fill: #fc8d62; opacity: 0.1; stroke: #fc8d62; stroke-linejoin: miter"/>
   </g>
   <g id="patch_4">
    <path d="M 405.025943 233.584744 
L 336.655534 194.324904 
L 300.150148 179.62942 
L 251.270199 137.103056 
L 165.049971 148.165845 
L 175.303324 233.584744 
L 200.094585 293.542241 
L 238.316149 369.934899 
L 313.88144 329.800643 
L 398.15318 317.52524 
z
" clip-path="url(#p4e3f0d7053)" style="fill: #8da0cb; opacity: 0.1; stroke: #8da0cb; stroke-linejoin: miter"/>
   </g>
   <g id="patch_5">
    <path d="M 410.056366 233.584744 
L 339.142572 192.517966 
L 302.309156 172.984676 
L 251.44292 137.634636 
L 155.554011 141.266626 
L 166.36035 233.584744 
L 198.511925 294.692111 
L 238.229789 370.200689 
L 316.904052 339.103285 
L 398.605369 317.853774 
z
" clip-path="url(#p4e3f0d7053)" style="fill: #66e2a5; opacity: 0.1; stroke: #66e2a5; stroke-linejoin: miter"/>
   </g>
   <g id="matplotlib.axis_1">
    <g id="xtick_1">
     <g id="line2d_1">
      <path d="M 282.619 233.584744 
L 450.299744 233.584744 
" clip-path="url(#p4e3f0d7053)" style="fill: none; stroke: #b0b0b0; stroke-width: 0.8; stroke-linecap: square"/>
     </g>
     <g id="text_1">
      <!--         Genre -->
      <g style="fill: #4d4d4d" transform="translate(425.307557 237.447869) scale(0.14 -0.14)">
       <defs>
        <path id="DejaVuSans-20" transform="scale(0.015625)"/>
        <path id="DejaVuSans-47" d="M 3809 666 
L 3809 1919 
L 2778 1919 
L 2778 2438 
L 4434 2438 
L 4434 434 
Q 4069 175 3628 42 
Q 3188 -91 2688 -91 
Q 1594 -91 976 548 
Q 359 1188 359 2328 
Q 359 3472 976 4111 
Q 1594 4750 2688 4750 
Q 3144 4750 3555 4637 
Q 3966 4525 4313 4306 
L 4313 3634 
Q 3963 3931 3569 4081 
Q 3175 4231 2741 4231 
Q 1884 4231 1454 3753 
Q 1025 3275 1025 2328 
Q 1025 1384 1454 906 
Q 1884 428 2741 428 
Q 3075 428 3337 486 
Q 3600 544 3809 666 
z
" transform="scale(0.015625)"/>
        <path id="DejaVuSans-65" d="M 3597 1894 
L 3597 1613 
L 953 1613 
Q 991 1019 1311 708 
Q 1631 397 2203 397 
Q 2534 397 2845 478 
Q 3156 559 3463 722 
L 3463 178 
Q 3153 47 2828 -22 
Q 2503 -91 2169 -91 
Q 1331 -91 842 396 
Q 353 884 353 1716 
Q 353 2575 817 3079 
Q 1281 3584 2069 3584 
Q 2775 3584 3186 3129 
Q 3597 2675 3597 1894 
z
M 3022 2063 
Q 3016 2534 2758 2815 
Q 2500 3097 2075 3097 
Q 1594 3097 1305 2825 
Q 1016 2553 972 2059 
L 3022 2063 
z
" transform="scale(0.015625)"/>
        <path id="DejaVuSans-6e" d="M 3513 2113 
L 3513 0 
L 2938 0 
L 2938 2094 
Q 2938 2591 2744 2837 
Q 2550 3084 2163 3084 
Q 1697 3084 1428 2787 
Q 1159 2491 1159 1978 
L 1159 0 
L 581 0 
L 581 3500 
L 1159 3500 
L 1159 2956 
Q 1366 3272 1645 3428 
Q 1925 3584 2291 3584 
Q 2894 3584 3203 3211 
Q 3513 2838 3513 2113 
z
" transform="scale(0.015625)"/>
        <path id="DejaVuSans-72" d="M 2631 2963 
Q 2534 3019 2420 3045 
Q 2306 3072 2169 3072 
Q 1681 3072 1420 2755 
Q 1159 2438 1159 1844 
L 1159 0 
L 581 0 
L 581 3500 
L 1159 3500 
L 1159 2956 
Q 1341 3275 1631 3429 
Q 1922 3584 2338 3584 
Q 2397 3584 2469 3576 
Q 2541 3569 2628 3553 
L 2631 2963 
z
" transform="scale(0.015625)"/>
       </defs>
       <use xlink:href="#DejaVuSans-20"/>
       <use xlink:href="#DejaVuSans-20" x="31.787109"/>
       <use xlink:href="#DejaVuSans-20" x="63.574219"/>
       <use xlink:href="#DejaVuSans-20" x="95.361328"/>
       <use xlink:href="#DejaVuSans-20" x="127.148438"/>
       <use xlink:href="#DejaVuSans-20" x="158.935547"/>
       <use xlink:href="#DejaVuSans-20" x="190.722656"/>
       <use xlink:href="#DejaVuSans-20" x="222.509766"/>
       <use xlink:href="#DejaVuSans-47" x="254.296875"/>
       <use xlink:href="#DejaVuSans-65" x="331.787109"/>
       <use xlink:href="#DejaVuSans-6e" x="393.310547"/>
       <use xlink:href="#DejaVuSans-72" x="456.689453"/>
       <use xlink:href="#DejaVuSans-65" x="495.552734"/>
      </g>
     </g>
    </g>
    <g id="xtick_2">
     <g id="line2d_2">
      <path d="M 282.619 233.584744 
L 418.275572 135.024476 
" clip-path="url(#p4e3f0d7053)" style="fill: none; stroke: #b0b0b0; stroke-width: 0.8; stroke-linecap: square"/>
     </g>
     <g id="text_2">
      <!--      Key -->
      <g style="fill: #4d4d4d" transform="translate(405.787591 130.658607) scale(0.14 -0.14)">
       <defs>
        <path id="DejaVuSans-4b" d="M 628 4666 
L 1259 4666 
L 1259 2694 
L 3353 4666 
L 4166 4666 
L 1850 2491 
L 4331 0 
L 3500 0 
L 1259 2247 
L 1259 0 
L 628 0 
L 628 4666 
z
" transform="scale(0.015625)"/>
        <path id="DejaVuSans-79" d="M 2059 -325 
Q 1816 -950 1584 -1140 
Q 1353 -1331 966 -1331 
L 506 -1331 
L 506 -850 
L 844 -850 
Q 1081 -850 1212 -737 
Q 1344 -625 1503 -206 
L 1606 56 
L 191 3500 
L 800 3500 
L 1894 763 
L 2988 3500 
L 3597 3500 
L 2059 -325 
z
" transform="scale(0.015625)"/>
       </defs>
       <use xlink:href="#DejaVuSans-20"/>
       <use xlink:href="#DejaVuSans-20" x="31.787109"/>
       <use xlink:href="#DejaVuSans-20" x="63.574219"/>
       <use xlink:href="#DejaVuSans-20" x="95.361328"/>
       <use xlink:href="#DejaVuSans-20" x="127.148438"/>
       <use xlink:href="#DejaVuSans-4b" x="158.935547"/>
       <use xlink:href="#DejaVuSans-65" x="219.511719"/>
       <use xlink:href="#DejaVuSans-79" x="281.035156"/>
      </g>
     </g>
    </g>
    <g id="xtick_3">
     <g id="line2d_3">
      <path d="M 282.619 233.584744 
L 334.4352 74.11088 
" clip-path="url(#p4e3f0d7053)" style="fill: none; stroke: #b0b0b0; stroke-width: 0.8; stroke-linecap: square"/>
     </g>
     <g id="text_3">
      <!--     Emotion/Valence -->
      <g style="fill: #4d4d4d" transform="translate(271.19175 56.820745) scale(0.14 -0.14)">
       <defs>
        <path id="DejaVuSans-45" d="M 628 4666 
L 3578 4666 
L 3578 4134 
L 1259 4134 
L 1259 2753 
L 3481 2753 
L 3481 2222 
L 1259 2222 
L 1259 531 
L 3634 531 
L 3634 0 
L 628 0 
L 628 4666 
z
" transform="scale(0.015625)"/>
        <path id="DejaVuSans-6d" d="M 3328 2828 
Q 3544 3216 3844 3400 
Q 4144 3584 4550 3584 
Q 5097 3584 5394 3201 
Q 5691 2819 5691 2113 
L 5691 0 
L 5113 0 
L 5113 2094 
Q 5113 2597 4934 2840 
Q 4756 3084 4391 3084 
Q 3944 3084 3684 2787 
Q 3425 2491 3425 1978 
L 3425 0 
L 2847 0 
L 2847 2094 
Q 2847 2600 2669 2842 
Q 2491 3084 2119 3084 
Q 1678 3084 1418 2786 
Q 1159 2488 1159 1978 
L 1159 0 
L 581 0 
L 581 3500 
L 1159 3500 
L 1159 2956 
Q 1356 3278 1631 3431 
Q 1906 3584 2284 3584 
Q 2666 3584 2933 3390 
Q 3200 3197 3328 2828 
z
" transform="scale(0.015625)"/>
        <path id="DejaVuSans-6f" d="M 1959 3097 
Q 1497 3097 1228 2736 
Q 959 2375 959 1747 
Q 959 1119 1226 758 
Q 1494 397 1959 397 
Q 2419 397 2687 759 
Q 2956 1122 2956 1747 
Q 2956 2369 2687 2733 
Q 2419 3097 1959 3097 
z
M 1959 3584 
Q 2709 3584 3137 3096 
Q 3566 2609 3566 1747 
Q 3566 888 3137 398 
Q 2709 -91 1959 -91 
Q 1206 -91 779 398 
Q 353 888 353 1747 
Q 353 2609 779 3096 
Q 1206 3584 1959 3584 
z
" transform="scale(0.015625)"/>
        <path id="DejaVuSans-74" d="M 1172 4494 
L 1172 3500 
L 2356 3500 
L 2356 3053 
L 1172 3053 
L 1172 1153 
Q 1172 725 1289 603 
Q 1406 481 1766 481 
L 2356 481 
L 2356 0 
L 1766 0 
Q 1100 0 847 248 
Q 594 497 594 1153 
L 594 3053 
L 172 3053 
L 172 3500 
L 594 3500 
L 594 4494 
L 1172 4494 
z
" transform="scale(0.015625)"/>
        <path id="DejaVuSans-69" d="M 603 3500 
L 1178 3500 
L 1178 0 
L 603 0 
L 603 3500 
z
M 603 4863 
L 1178 4863 
L 1178 4134 
L 603 4134 
L 603 4863 
z
" transform="scale(0.015625)"/>
        <path id="DejaVuSans-2f" d="M 1625 4666 
L 2156 4666 
L 531 -594 
L 0 -594 
L 1625 4666 
z
" transform="scale(0.015625)"/>
        <path id="DejaVuSans-56" d="M 1831 0 
L 50 4666 
L 709 4666 
L 2188 738 
L 3669 4666 
L 4325 4666 
L 2547 0 
L 1831 0 
z
" transform="scale(0.015625)"/>
        <path id="DejaVuSans-61" d="M 2194 1759 
Q 1497 1759 1228 1600 
Q 959 1441 959 1056 
Q 959 750 1161 570 
Q 1363 391 1709 391 
Q 2188 391 2477 730 
Q 2766 1069 2766 1631 
L 2766 1759 
L 2194 1759 
z
M 3341 1997 
L 3341 0 
L 2766 0 
L 2766 531 
Q 2569 213 2275 61 
Q 1981 -91 1556 -91 
Q 1019 -91 701 211 
Q 384 513 384 1019 
Q 384 1609 779 1909 
Q 1175 2209 1959 2209 
L 2766 2209 
L 2766 2266 
Q 2766 2663 2505 2880 
Q 2244 3097 1772 3097 
Q 1472 3097 1187 3025 
Q 903 2953 641 2809 
L 641 3341 
Q 956 3463 1253 3523 
Q 1550 3584 1831 3584 
Q 2591 3584 2966 3190 
Q 3341 2797 3341 1997 
z
" transform="scale(0.015625)"/>
        <path id="DejaVuSans-6c" d="M 603 4863 
L 1178 4863 
L 1178 0 
L 603 0 
L 603 4863 
z
" transform="scale(0.015625)"/>
        <path id="DejaVuSans-63" d="M 3122 3366 
L 3122 2828 
Q 2878 2963 2633 3030 
Q 2388 3097 2138 3097 
Q 1578 3097 1268 2742 
Q 959 2388 959 1747 
Q 959 1106 1268 751 
Q 1578 397 2138 397 
Q 2388 397 2633 464 
Q 2878 531 3122 666 
L 3122 134 
Q 2881 22 2623 -34 
Q 2366 -91 2075 -91 
Q 1284 -91 818 406 
Q 353 903 353 1747 
Q 353 2603 823 3093 
Q 1294 3584 2113 3584 
Q 2378 3584 2631 3529 
Q 2884 3475 3122 3366 
z
" transform="scale(0.015625)"/>
       </defs>
       <use xlink:href="#DejaVuSans-20"/>
       <use xlink:href="#DejaVuSans-20" x="31.787109"/>
       <use xlink:href="#DejaVuSans-20" x="63.574219"/>
       <use xlink:href="#DejaVuSans-20" x="95.361328"/>
       <use xlink:href="#DejaVuSans-45" x="127.148438"/>
       <use xlink:href="#DejaVuSans-6d" x="190.332031"/>
       <use xlink:href="#DejaVuSans-6f" x="287.744141"/>
       <use xlink:href="#DejaVuSans-74" x="348.925781"/>
       <use xlink:href="#DejaVuSans-69" x="388.134766"/>
       <use xlink:href="#DejaVuSans-6f" x="415.917969"/>
       <use xlink:href="#DejaVuSans-6e" x="477.099609"/>
       <use xlink:href="#DejaVuSans-2f" x="540.478516"/>
       <use xlink:href="#DejaVuSans-56" x="574.169922"/>
       <use xlink:href="#DejaVuSans-61" x="634.828125"/>
       <use xlink:href="#DejaVuSans-6c" x="696.107422"/>
       <use xlink:href="#DejaVuSans-65" x="723.890625"/>
       <use xlink:href="#DejaVuSans-6e" x="785.414062"/>
       <use xlink:href="#DejaVuSans-63" x="848.792969"/>
       <use xlink:href="#DejaVuSans-65" x="903.773438"/>
      </g>
      <!--  -->
      <g style="fill: #4d4d4d" transform="translate(338.761438 72.497682) scale(0.14 -0.14)"/>
     </g>
    </g>
    <g id="xtick_4">
     <g id="line2d_4">
      <path d="M 282.619 233.584744 
L 230.8028 74.11088 
" clip-path="url(#p4e3f0d7053)" style="fill: none; stroke: #b0b0b0; stroke-width: 0.8; stroke-linecap: square"/>
     </g>
     <g id="text_4">
      <!-- Emotion/Arousal    -->
      <g style="fill: #4d4d4d" transform="translate(162.4025 56.820745) scale(0.14 -0.14)">
       <defs>
        <path id="DejaVuSans-41" d="M 2188 4044 
L 1331 1722 
L 3047 1722 
L 2188 4044 
z
M 1831 4666 
L 2547 4666 
L 4325 0 
L 3669 0 
L 3244 1197 
L 1141 1197 
L 716 0 
L 50 0 
L 1831 4666 
z
" transform="scale(0.015625)"/>
        <path id="DejaVuSans-75" d="M 544 1381 
L 544 3500 
L 1119 3500 
L 1119 1403 
Q 1119 906 1312 657 
Q 1506 409 1894 409 
Q 2359 409 2629 706 
Q 2900 1003 2900 1516 
L 2900 3500 
L 3475 3500 
L 3475 0 
L 2900 0 
L 2900 538 
Q 2691 219 2414 64 
Q 2138 -91 1772 -91 
Q 1169 -91 856 284 
Q 544 659 544 1381 
z
M 1991 3584 
L 1991 3584 
z
" transform="scale(0.015625)"/>
        <path id="DejaVuSans-73" d="M 2834 3397 
L 2834 2853 
Q 2591 2978 2328 3040 
Q 2066 3103 1784 3103 
Q 1356 3103 1142 2972 
Q 928 2841 928 2578 
Q 928 2378 1081 2264 
Q 1234 2150 1697 2047 
L 1894 2003 
Q 2506 1872 2764 1633 
Q 3022 1394 3022 966 
Q 3022 478 2636 193 
Q 2250 -91 1575 -91 
Q 1294 -91 989 -36 
Q 684 19 347 128 
L 347 722 
Q 666 556 975 473 
Q 1284 391 1588 391 
Q 1994 391 2212 530 
Q 2431 669 2431 922 
Q 2431 1156 2273 1281 
Q 2116 1406 1581 1522 
L 1381 1569 
Q 847 1681 609 1914 
Q 372 2147 372 2553 
Q 372 3047 722 3315 
Q 1072 3584 1716 3584 
Q 2034 3584 2315 3537 
Q 2597 3491 2834 3397 
z
" transform="scale(0.015625)"/>
       </defs>
       <use xlink:href="#DejaVuSans-45"/>
       <use xlink:href="#DejaVuSans-6d" x="63.183594"/>
       <use xlink:href="#DejaVuSans-6f" x="160.595703"/>
       <use xlink:href="#DejaVuSans-74" x="221.777344"/>
       <use xlink:href="#DejaVuSans-69" x="260.986328"/>
       <use xlink:href="#DejaVuSans-6f" x="288.769531"/>
       <use xlink:href="#DejaVuSans-6e" x="349.951172"/>
       <use xlink:href="#DejaVuSans-2f" x="413.330078"/>
       <use xlink:href="#DejaVuSans-41" x="447.021484"/>
       <use xlink:href="#DejaVuSans-72" x="515.429688"/>
       <use xlink:href="#DejaVuSans-6f" x="554.292969"/>
       <use xlink:href="#DejaVuSans-75" x="615.474609"/>
       <use xlink:href="#DejaVuSans-73" x="678.853516"/>
       <use xlink:href="#DejaVuSans-61" x="730.953125"/>
       <use xlink:href="#DejaVuSans-6c" x="792.232422"/>
       <use xlink:href="#DejaVuSans-20" x="820.015625"/>
       <use xlink:href="#DejaVuSans-20" x="851.802734"/>
       <use xlink:href="#DejaVuSans-20" x="883.589844"/>
      </g>
      <!--  -->
      <g style="fill: #4d4d4d" transform="translate(226.476562 72.497682) scale(0.14 -0.14)"/>
     </g>
    </g>
    <g id="xtick_5">
     <g id="line2d_5">
      <path d="M 282.619 233.584744 
L 146.962428 135.024476 
" clip-path="url(#p4e3f0d7053)" style="fill: none; stroke: #b0b0b0; stroke-width: 0.8; stroke-linecap: square"/>
     </g>
     <g id="text_5">
      <!-- Singer          -->
      <g style="fill: #4d4d4d" transform="translate(93.160409 130.658607) scale(0.14 -0.14)">
       <defs>
        <path id="DejaVuSans-53" d="M 3425 4513 
L 3425 3897 
Q 3066 4069 2747 4153 
Q 2428 4238 2131 4238 
Q 1616 4238 1336 4038 
Q 1056 3838 1056 3469 
Q 1056 3159 1242 3001 
Q 1428 2844 1947 2747 
L 2328 2669 
Q 3034 2534 3370 2195 
Q 3706 1856 3706 1288 
Q 3706 609 3251 259 
Q 2797 -91 1919 -91 
Q 1588 -91 1214 -16 
Q 841 59 441 206 
L 441 856 
Q 825 641 1194 531 
Q 1563 422 1919 422 
Q 2459 422 2753 634 
Q 3047 847 3047 1241 
Q 3047 1584 2836 1778 
Q 2625 1972 2144 2069 
L 1759 2144 
Q 1053 2284 737 2584 
Q 422 2884 422 3419 
Q 422 4038 858 4394 
Q 1294 4750 2059 4750 
Q 2388 4750 2728 4690 
Q 3069 4631 3425 4513 
z
" transform="scale(0.015625)"/>
        <path id="DejaVuSans-67" d="M 2906 1791 
Q 2906 2416 2648 2759 
Q 2391 3103 1925 3103 
Q 1463 3103 1205 2759 
Q 947 2416 947 1791 
Q 947 1169 1205 825 
Q 1463 481 1925 481 
Q 2391 481 2648 825 
Q 2906 1169 2906 1791 
z
M 3481 434 
Q 3481 -459 3084 -895 
Q 2688 -1331 1869 -1331 
Q 1566 -1331 1297 -1286 
Q 1028 -1241 775 -1147 
L 775 -588 
Q 1028 -725 1275 -790 
Q 1522 -856 1778 -856 
Q 2344 -856 2625 -561 
Q 2906 -266 2906 331 
L 2906 616 
Q 2728 306 2450 153 
Q 2172 0 1784 0 
Q 1141 0 747 490 
Q 353 981 353 1791 
Q 353 2603 747 3093 
Q 1141 3584 1784 3584 
Q 2172 3584 2450 3431 
Q 2728 3278 2906 2969 
L 2906 3500 
L 3481 3500 
L 3481 434 
z
" transform="scale(0.015625)"/>
       </defs>
       <use xlink:href="#DejaVuSans-53"/>
       <use xlink:href="#DejaVuSans-69" x="63.476562"/>
       <use xlink:href="#DejaVuSans-6e" x="91.259766"/>
       <use xlink:href="#DejaVuSans-67" x="154.638672"/>
       <use xlink:href="#DejaVuSans-65" x="218.115234"/>
       <use xlink:href="#DejaVuSans-72" x="279.638672"/>
       <use xlink:href="#DejaVuSans-20" x="320.751953"/>
       <use xlink:href="#DejaVuSans-20" x="352.539062"/>
       <use xlink:href="#DejaVuSans-20" x="384.326172"/>
       <use xlink:href="#DejaVuSans-20" x="416.113281"/>
       <use xlink:href="#DejaVuSans-20" x="447.900391"/>
       <use xlink:href="#DejaVuSans-20" x="479.6875"/>
       <use xlink:href="#DejaVuSans-20" x="511.474609"/>
       <use xlink:href="#DejaVuSans-20" x="543.261719"/>
       <use xlink:href="#DejaVuSans-20" x="575.048828"/>
      </g>
     </g>
    </g>
    <g id="xtick_6">
     <g id="line2d_6">
      <path d="M 282.619 233.584744 
L 114.938256 233.584744 
" clip-path="url(#p4e3f0d7053)" style="fill: none; stroke: #b0b0b0; stroke-width: 0.8; stroke-linecap: square"/>
     </g>
     <g id="text_6">
      <!-- Technique                -->
      <g style="fill: #4d4d4d" transform="translate(32.321849 237.447869) scale(0.14 -0.14)">
       <defs>
        <path id="DejaVuSans-54" d="M -19 4666 
L 3928 4666 
L 3928 4134 
L 2272 4134 
L 2272 0 
L 1638 0 
L 1638 4134 
L -19 4134 
L -19 4666 
z
" transform="scale(0.015625)"/>
        <path id="DejaVuSans-68" d="M 3513 2113 
L 3513 0 
L 2938 0 
L 2938 2094 
Q 2938 2591 2744 2837 
Q 2550 3084 2163 3084 
Q 1697 3084 1428 2787 
Q 1159 2491 1159 1978 
L 1159 0 
L 581 0 
L 581 4863 
L 1159 4863 
L 1159 2956 
Q 1366 3272 1645 3428 
Q 1925 3584 2291 3584 
Q 2894 3584 3203 3211 
Q 3513 2838 3513 2113 
z
" transform="scale(0.015625)"/>
        <path id="DejaVuSans-71" d="M 947 1747 
Q 947 1113 1208 752 
Q 1469 391 1925 391 
Q 2381 391 2643 752 
Q 2906 1113 2906 1747 
Q 2906 2381 2643 2742 
Q 2381 3103 1925 3103 
Q 1469 3103 1208 2742 
Q 947 2381 947 1747 
z
M 2906 525 
Q 2725 213 2448 61 
Q 2172 -91 1784 -91 
Q 1150 -91 751 415 
Q 353 922 353 1747 
Q 353 2572 751 3078 
Q 1150 3584 1784 3584 
Q 2172 3584 2448 3432 
Q 2725 3281 2906 2969 
L 2906 3500 
L 3481 3500 
L 3481 -1331 
L 2906 -1331 
L 2906 525 
z
" transform="scale(0.015625)"/>
       </defs>
       <use xlink:href="#DejaVuSans-54"/>
       <use xlink:href="#DejaVuSans-65" x="44.083984"/>
       <use xlink:href="#DejaVuSans-63" x="105.607422"/>
       <use xlink:href="#DejaVuSans-68" x="160.587891"/>
       <use xlink:href="#DejaVuSans-6e" x="223.966797"/>
       <use xlink:href="#DejaVuSans-69" x="287.345703"/>
       <use xlink:href="#DejaVuSans-71" x="315.128906"/>
       <use xlink:href="#DejaVuSans-75" x="378.605469"/>
       <use xlink:href="#DejaVuSans-65" x="441.984375"/>
       <use xlink:href="#DejaVuSans-20" x="503.507812"/>
       <use xlink:href="#DejaVuSans-20" x="535.294922"/>
       <use xlink:href="#DejaVuSans-20" x="567.082031"/>
       <use xlink:href="#DejaVuSans-20" x="598.869141"/>
       <use xlink:href="#DejaVuSans-20" x="630.65625"/>
       <use xlink:href="#DejaVuSans-20" x="662.443359"/>
       <use xlink:href="#DejaVuSans-20" x="694.230469"/>
       <use xlink:href="#DejaVuSans-20" x="726.017578"/>
       <use xlink:href="#DejaVuSans-20" x="757.804688"/>
       <use xlink:href="#DejaVuSans-20" x="789.591797"/>
       <use xlink:href="#DejaVuSans-20" x="821.378906"/>
       <use xlink:href="#DejaVuSans-20" x="853.166016"/>
       <use xlink:href="#DejaVuSans-20" x="884.953125"/>
       <use xlink:href="#DejaVuSans-20" x="916.740234"/>
       <use xlink:href="#DejaVuSans-20" x="948.527344"/>
      </g>
     </g>
    </g>
    <g id="xtick_7">
     <g id="line2d_7">
      <path d="M 282.619 233.584744 
L 146.962428 332.145013 
" clip-path="url(#p4e3f0d7053)" style="fill: none; stroke: #b0b0b0; stroke-width: 0.8; stroke-linecap: square"/>
     </g>
     <g id="text_7">
      <!-- Structure                   -->
      <g style="fill: #4d4d4d" transform="translate(63.033065 344.237132) scale(0.14 -0.14)">
       <use xlink:href="#DejaVuSans-53"/>
       <use xlink:href="#DejaVuSans-74" x="63.476562"/>
       <use xlink:href="#DejaVuSans-72" x="102.685547"/>
       <use xlink:href="#DejaVuSans-75" x="143.798828"/>
       <use xlink:href="#DejaVuSans-63" x="207.177734"/>
       <use xlink:href="#DejaVuSans-74" x="262.158203"/>
       <use xlink:href="#DejaVuSans-75" x="301.367188"/>
       <use xlink:href="#DejaVuSans-72" x="364.746094"/>
       <use xlink:href="#DejaVuSans-65" x="403.609375"/>
       <use xlink:href="#DejaVuSans-20" x="465.132812"/>
       <use xlink:href="#DejaVuSans-20" x="496.919922"/>
       <use xlink:href="#DejaVuSans-20" x="528.707031"/>
       <use xlink:href="#DejaVuSans-20" x="560.494141"/>
       <use xlink:href="#DejaVuSans-20" x="592.28125"/>
       <use xlink:href="#DejaVuSans-20" x="624.068359"/>
       <use xlink:href="#DejaVuSans-20" x="655.855469"/>
       <use xlink:href="#DejaVuSans-20" x="687.642578"/>
       <use xlink:href="#DejaVuSans-20" x="719.429688"/>
       <use xlink:href="#DejaVuSans-20" x="751.216797"/>
       <use xlink:href="#DejaVuSans-20" x="783.003906"/>
       <use xlink:href="#DejaVuSans-20" x="814.791016"/>
       <use xlink:href="#DejaVuSans-20" x="846.578125"/>
       <use xlink:href="#DejaVuSans-20" x="878.365234"/>
       <use xlink:href="#DejaVuSans-20" x="910.152344"/>
       <use xlink:href="#DejaVuSans-20" x="941.939453"/>
       <use xlink:href="#DejaVuSans-20" x="973.726562"/>
       <use xlink:href="#DejaVuSans-20" x="1005.513672"/>
      </g>
     </g>
    </g>
    <g id="xtick_8">
     <g id="line2d_8">
      <path d="M 282.619 233.584744 
L 230.8028 393.058609 
" clip-path="url(#p4e3f0d7053)" style="fill: none; stroke: #b0b0b0; stroke-width: 0.8; stroke-linecap: square"/>
     </g>
     <g id="text_8">
      <!--  -->
      <g style="fill: #4d4d4d" transform="translate(226.476562 402.398057) scale(0.14 -0.14)"/>
      <!-- Tagging/ROC -->
      <g style="fill: #4d4d4d" transform="translate(181.733437 418.074994) scale(0.14 -0.14)">
       <defs>
        <path id="DejaVuSans-52" d="M 2841 2188 
Q 3044 2119 3236 1894 
Q 3428 1669 3622 1275 
L 4263 0 
L 3584 0 
L 2988 1197 
Q 2756 1666 2539 1819 
Q 2322 1972 1947 1972 
L 1259 1972 
L 1259 0 
L 628 0 
L 628 4666 
L 2053 4666 
Q 2853 4666 3247 4331 
Q 3641 3997 3641 3322 
Q 3641 2881 3436 2590 
Q 3231 2300 2841 2188 
z
M 1259 4147 
L 1259 2491 
L 2053 2491 
Q 2509 2491 2742 2702 
Q 2975 2913 2975 3322 
Q 2975 3731 2742 3939 
Q 2509 4147 2053 4147 
L 1259 4147 
z
" transform="scale(0.015625)"/>
        <path id="DejaVuSans-4f" d="M 2522 4238 
Q 1834 4238 1429 3725 
Q 1025 3213 1025 2328 
Q 1025 1447 1429 934 
Q 1834 422 2522 422 
Q 3209 422 3611 934 
Q 4013 1447 4013 2328 
Q 4013 3213 3611 3725 
Q 3209 4238 2522 4238 
z
M 2522 4750 
Q 3503 4750 4090 4092 
Q 4678 3434 4678 2328 
Q 4678 1225 4090 567 
Q 3503 -91 2522 -91 
Q 1538 -91 948 565 
Q 359 1222 359 2328 
Q 359 3434 948 4092 
Q 1538 4750 2522 4750 
z
" transform="scale(0.015625)"/>
        <path id="DejaVuSans-43" d="M 4122 4306 
L 4122 3641 
Q 3803 3938 3442 4084 
Q 3081 4231 2675 4231 
Q 1875 4231 1450 3742 
Q 1025 3253 1025 2328 
Q 1025 1406 1450 917 
Q 1875 428 2675 428 
Q 3081 428 3442 575 
Q 3803 722 4122 1019 
L 4122 359 
Q 3791 134 3420 21 
Q 3050 -91 2638 -91 
Q 1578 -91 968 557 
Q 359 1206 359 2328 
Q 359 3453 968 4101 
Q 1578 4750 2638 4750 
Q 3056 4750 3426 4639 
Q 3797 4528 4122 4306 
z
" transform="scale(0.015625)"/>
       </defs>
       <use xlink:href="#DejaVuSans-54"/>
       <use xlink:href="#DejaVuSans-61" x="44.583984"/>
       <use xlink:href="#DejaVuSans-67" x="105.863281"/>
       <use xlink:href="#DejaVuSans-67" x="169.339844"/>
       <use xlink:href="#DejaVuSans-69" x="232.816406"/>
       <use xlink:href="#DejaVuSans-6e" x="260.599609"/>
       <use xlink:href="#DejaVuSans-67" x="323.978516"/>
       <use xlink:href="#DejaVuSans-2f" x="387.455078"/>
       <use xlink:href="#DejaVuSans-52" x="421.146484"/>
       <use xlink:href="#DejaVuSans-4f" x="490.628906"/>
       <use xlink:href="#DejaVuSans-43" x="569.339844"/>
      </g>
     </g>
    </g>
    <g id="xtick_9">
     <g id="line2d_9">
      <path d="M 282.619 233.584744 
L 334.4352 393.058609 
" clip-path="url(#p4e3f0d7053)" style="fill: none; stroke: #b0b0b0; stroke-width: 0.8; stroke-linecap: square"/>
     </g>
     <g id="text_9">
      <!--  -->
      <g style="fill: #4d4d4d" transform="translate(338.761438 402.398057) scale(0.14 -0.14)"/>
      <!-- Instrument -->
      <g style="fill: #4d4d4d" transform="translate(300.249406 418.074994) scale(0.14 -0.14)">
       <defs>
        <path id="DejaVuSans-49" d="M 628 4666 
L 1259 4666 
L 1259 0 
L 628 0 
L 628 4666 
z
" transform="scale(0.015625)"/>
       </defs>
       <use xlink:href="#DejaVuSans-49"/>
       <use xlink:href="#DejaVuSans-6e" x="29.492188"/>
       <use xlink:href="#DejaVuSans-73" x="92.871094"/>
       <use xlink:href="#DejaVuSans-74" x="144.970703"/>
       <use xlink:href="#DejaVuSans-72" x="184.179688"/>
       <use xlink:href="#DejaVuSans-75" x="225.292969"/>
       <use xlink:href="#DejaVuSans-6d" x="288.671875"/>
       <use xlink:href="#DejaVuSans-65" x="386.083984"/>
       <use xlink:href="#DejaVuSans-6e" x="447.607422"/>
       <use xlink:href="#DejaVuSans-74" x="510.986328"/>
      </g>
     </g>
    </g>
    <g id="xtick_10">
     <g id="line2d_10">
      <path d="M 282.619 233.584744 
L 418.275572 332.145013 
" clip-path="url(#p4e3f0d7053)" style="fill: none; stroke: #b0b0b0; stroke-width: 0.8; stroke-linecap: square"/>
     </g>
     <g id="text_10">
      <!--       Pitch -->
      <g style="fill: #4d4d4d" transform="translate(399.216341 344.237132) scale(0.14 -0.14)">
       <defs>
        <path id="DejaVuSans-50" d="M 1259 4147 
L 1259 2394 
L 2053 2394 
Q 2494 2394 2734 2622 
Q 2975 2850 2975 3272 
Q 2975 3691 2734 3919 
Q 2494 4147 2053 4147 
L 1259 4147 
z
M 628 4666 
L 2053 4666 
Q 2838 4666 3239 4311 
Q 3641 3956 3641 3272 
Q 3641 2581 3239 2228 
Q 2838 1875 2053 1875 
L 1259 1875 
L 1259 0 
L 628 0 
L 628 4666 
z
" transform="scale(0.015625)"/>
       </defs>
       <use xlink:href="#DejaVuSans-20"/>
       <use xlink:href="#DejaVuSans-20" x="31.787109"/>
       <use xlink:href="#DejaVuSans-20" x="63.574219"/>
       <use xlink:href="#DejaVuSans-20" x="95.361328"/>
       <use xlink:href="#DejaVuSans-20" x="127.148438"/>
       <use xlink:href="#DejaVuSans-20" x="158.935547"/>
       <use xlink:href="#DejaVuSans-50" x="190.722656"/>
       <use xlink:href="#DejaVuSans-69" x="248.775391"/>
       <use xlink:href="#DejaVuSans-74" x="276.558594"/>
       <use xlink:href="#DejaVuSans-63" x="315.767578"/>
       <use xlink:href="#DejaVuSans-68" x="370.748047"/>
      </g>
     </g>
    </g>
   </g>
   <g id="matplotlib.axis_2">
    <g id="ytick_1">
     <g id="line2d_11">
      <path d="M 282.619 233.584744 
C 282.619 233.584744 282.619 233.584744 282.619 233.584744 
C 282.619 233.584744 282.619 233.584744 282.619 233.584744 
C 282.619 233.584744 282.619 233.584744 282.619 233.584744 
C 282.619 233.584744 282.619 233.584744 282.619 233.584744 
C 282.619 233.584744 282.619 233.584744 282.619 233.584744 
C 282.619 233.584744 282.619 233.584744 282.619 233.584744 
C 282.619 233.584744 282.619 233.584744 282.619 233.584744 
C 282.619 233.584744 282.619 233.584744 282.619 233.584744 
C 282.619 233.584744 282.619 233.584744 282.619 233.584744 
C 282.619 233.584744 282.619 233.584744 282.619 233.584744 
C 282.619 233.584744 282.619 233.584744 282.619 233.584744 
C 282.619 233.584744 282.619 233.584744 282.619 233.584744 
C 282.619 233.584744 282.619 233.584744 282.619 233.584744 
C 282.619 233.584744 282.619 233.584744 282.619 233.584744 
C 282.619 233.584744 282.619 233.584744 282.619 233.584744 
C 282.619 233.584744 282.619 233.584744 282.619 233.584744 
" clip-path="url(#p4e3f0d7053)" style="fill: none; stroke-dasharray: 0.8,1.32; stroke-dashoffset: 0; stroke: #e0e0e0; stroke-width: 0.8"/>
     </g>
     <g id="text_11">
      <!-- 40 -->
      <g style="fill: #4d4d4d" transform="translate(282.619 231.505057) scale(0.1 -0.1)">
       <defs>
        <path id="DejaVuSans-34" d="M 2419 4116 
L 825 1625 
L 2419 1625 
L 2419 4116 
z
M 2253 4666 
L 3047 4666 
L 3047 1625 
L 3713 1625 
L 3713 1100 
L 3047 1100 
L 3047 0 
L 2419 0 
L 2419 1100 
L 313 1100 
L 313 1709 
L 2253 4666 
z
" transform="scale(0.015625)"/>
        <path id="DejaVuSans-30" d="M 2034 4250 
Q 1547 4250 1301 3770 
Q 1056 3291 1056 2328 
Q 1056 1369 1301 889 
Q 1547 409 2034 409 
Q 2525 409 2770 889 
Q 3016 1369 3016 2328 
Q 3016 3291 2770 3770 
Q 2525 4250 2034 4250 
z
M 2034 4750 
Q 2819 4750 3233 4129 
Q 3647 3509 3647 2328 
Q 3647 1150 3233 529 
Q 2819 -91 2034 -91 
Q 1250 -91 836 529 
Q 422 1150 422 2328 
Q 422 3509 836 4129 
Q 1250 4750 2034 4750 
z
" transform="scale(0.015625)"/>
       </defs>
       <use xlink:href="#DejaVuSans-34"/>
       <use xlink:href="#DejaVuSans-30" x="63.623047"/>
      </g>
     </g>
    </g>
    <g id="ytick_2">
     <g id="line2d_12">
      <path d="M 310.565791 233.584744 
C 310.565791 229.914806 309.842893 226.280552 308.438468 222.889971 
C 307.034043 219.499389 304.975404 216.418418 302.380365 213.823379 
C 299.785327 211.228341 296.704355 209.169701 293.313774 207.765277 
C 289.923192 206.360852 286.288939 205.637954 282.619 205.637954 
C 278.949061 205.637954 275.314808 206.360852 271.924226 207.765277 
C 268.533645 209.169701 265.452673 211.228341 262.857635 213.823379 
C 260.262596 216.418418 258.203957 219.499389 256.799532 222.889971 
C 255.395107 226.280552 254.672209 229.914806 254.672209 233.584744 
C 254.672209 237.254683 255.395107 240.888937 256.799532 244.279518 
C 258.203957 247.6701 260.262596 250.751071 262.857635 253.34611 
C 265.452673 255.941148 268.533645 257.999788 271.924226 259.404212 
C 275.314808 260.808637 278.949061 261.531535 282.619 261.531535 
C 286.288939 261.531535 289.923192 260.808637 293.313774 259.404212 
C 296.704355 257.999788 299.785327 255.941148 302.380365 253.34611 
C 304.975404 250.751071 307.034043 247.6701 308.438468 244.279518 
C 309.842893 240.888937 310.565791 237.254683 310.565791 233.584744 
" clip-path="url(#p4e3f0d7053)" style="fill: none; stroke-dasharray: 0.8,1.32; stroke-dashoffset: 0; stroke: #e0e0e0; stroke-width: 0.8"/>
     </g>
     <g id="text_12">
      <!-- 50 -->
      <g style="fill: #4d4d4d" transform="translate(308.438468 220.810283) scale(0.1 -0.1)">
       <defs>
        <path id="DejaVuSans-35" d="M 691 4666 
L 3169 4666 
L 3169 4134 
L 1269 4134 
L 1269 2991 
Q 1406 3038 1543 3061 
Q 1681 3084 1819 3084 
Q 2600 3084 3056 2656 
Q 3513 2228 3513 1497 
Q 3513 744 3044 326 
Q 2575 -91 1722 -91 
Q 1428 -91 1123 -41 
Q 819 9 494 109 
L 494 744 
Q 775 591 1075 516 
Q 1375 441 1709 441 
Q 2250 441 2565 725 
Q 2881 1009 2881 1497 
Q 2881 1984 2565 2268 
Q 2250 2553 1709 2553 
Q 1456 2553 1204 2497 
Q 953 2441 691 2322 
L 691 4666 
z
" transform="scale(0.015625)"/>
       </defs>
       <use xlink:href="#DejaVuSans-35"/>
       <use xlink:href="#DejaVuSans-30" x="63.623047"/>
      </g>
     </g>
    </g>
    <g id="ytick_3">
     <g id="line2d_13">
      <path d="M 338.512581 233.584744 
C 338.512581 226.244867 337.066786 218.97636 334.257936 212.195197 
C 331.449086 205.414034 327.331808 199.252091 322.141731 194.062014 
C 316.951653 188.871937 310.789711 184.754658 304.008548 181.945809 
C 297.227385 179.136959 289.958878 177.691163 282.619 177.691163 
C 275.279122 177.691163 268.010615 179.136959 261.229452 181.945809 
C 254.448289 184.754658 248.286347 188.871937 243.096269 194.062014 
C 237.906192 199.252091 233.788914 205.414034 230.980064 212.195197 
C 228.171214 218.97636 226.725419 226.244867 226.725419 233.584744 
C 226.725419 240.924622 228.171214 248.193129 230.980064 254.974292 
C 233.788914 261.755455 237.906192 267.917398 243.096269 273.107475 
C 248.286347 278.297552 254.448289 282.414831 261.229452 285.22368 
C 268.010615 288.03253 275.279122 289.478326 282.619 289.478326 
C 289.958878 289.478326 297.227385 288.03253 304.008548 285.22368 
C 310.789711 282.414831 316.951653 278.297552 322.141731 273.107475 
C 327.331808 267.917398 331.449086 261.755455 334.257936 254.974292 
C 337.066786 248.193129 338.512581 240.924622 338.512581 233.584744 
" clip-path="url(#p4e3f0d7053)" style="fill: none; stroke-dasharray: 0.8,1.32; stroke-dashoffset: 0; stroke: #e0e0e0; stroke-width: 0.8"/>
     </g>
     <g id="text_13">
      <!-- 60 -->
      <g style="fill: #4d4d4d" transform="translate(334.257936 210.115509) scale(0.1 -0.1)">
       <defs>
        <path id="DejaVuSans-36" d="M 2113 2584 
Q 1688 2584 1439 2293 
Q 1191 2003 1191 1497 
Q 1191 994 1439 701 
Q 1688 409 2113 409 
Q 2538 409 2786 701 
Q 3034 994 3034 1497 
Q 3034 2003 2786 2293 
Q 2538 2584 2113 2584 
z
M 3366 4563 
L 3366 3988 
Q 3128 4100 2886 4159 
Q 2644 4219 2406 4219 
Q 1781 4219 1451 3797 
Q 1122 3375 1075 2522 
Q 1259 2794 1537 2939 
Q 1816 3084 2150 3084 
Q 2853 3084 3261 2657 
Q 3669 2231 3669 1497 
Q 3669 778 3244 343 
Q 2819 -91 2113 -91 
Q 1303 -91 875 529 
Q 447 1150 447 2328 
Q 447 3434 972 4092 
Q 1497 4750 2381 4750 
Q 2619 4750 2861 4703 
Q 3103 4656 3366 4563 
z
" transform="scale(0.015625)"/>
       </defs>
       <use xlink:href="#DejaVuSans-36"/>
       <use xlink:href="#DejaVuSans-30" x="63.623047"/>
      </g>
     </g>
    </g>
    <g id="ytick_4">
     <g id="line2d_14">
      <path d="M 366.459372 233.584744 
C 366.459372 222.574928 364.290678 211.672167 360.077404 201.500423 
C 355.864129 191.328679 349.688212 182.085765 341.903096 174.300649 
C 334.11798 166.515533 324.875066 160.339615 314.703321 156.126341 
C 304.531577 151.913066 293.628817 149.744372 282.619 149.744372 
C 271.609183 149.744372 260.706423 151.913066 250.534679 156.126341 
C 240.362934 160.339615 231.12002 166.515533 223.334904 174.300649 
C 215.549788 182.085765 209.373871 191.328679 205.160596 201.500423 
C 200.947322 211.672167 198.778628 222.574928 198.778628 233.584744 
C 198.778628 244.594561 200.947322 255.497322 205.160596 265.669066 
C 209.373871 275.84081 215.549788 285.083724 223.334904 292.86884 
C 231.12002 300.653956 240.362934 306.829874 250.534679 311.043148 
C 260.706423 315.256423 271.609183 317.425117 282.619 317.425117 
C 293.628817 317.425117 304.531577 315.256423 314.703321 311.043148 
C 324.875066 306.829874 334.11798 300.653956 341.903096 292.86884 
C 349.688212 285.083724 355.864129 275.84081 360.077404 265.669066 
C 364.290678 255.497322 366.459372 244.594561 366.459372 233.584744 
" clip-path="url(#p4e3f0d7053)" style="fill: none; stroke-dasharray: 0.8,1.32; stroke-dashoffset: 0; stroke: #e0e0e0; stroke-width: 0.8"/>
     </g>
     <g id="text_14">
      <!-- 70 -->
      <g style="fill: #4d4d4d" transform="translate(360.077404 199.420736) scale(0.1 -0.1)">
       <defs>
        <path id="DejaVuSans-37" d="M 525 4666 
L 3525 4666 
L 3525 4397 
L 1831 0 
L 1172 0 
L 2766 4134 
L 525 4134 
L 525 4666 
z
" transform="scale(0.015625)"/>
       </defs>
       <use xlink:href="#DejaVuSans-37"/>
       <use xlink:href="#DejaVuSans-30" x="63.623047"/>
      </g>
     </g>
    </g>
    <g id="ytick_5">
     <g id="line2d_15">
      <path d="M 394.406163 233.584744 
C 394.406163 218.904989 391.514571 204.367975 385.896872 190.805649 
C 380.279173 177.243323 372.044616 164.919438 361.664461 154.539283 
C 351.284306 144.159129 338.960421 135.924572 325.398095 130.306873 
C 311.835769 124.689173 297.298756 121.797581 282.619 121.797581 
C 267.939244 121.797581 253.402231 124.689173 239.839905 130.306873 
C 226.277579 135.924572 213.953694 144.159129 203.573539 154.539283 
C 193.193384 164.919438 184.958827 177.243323 179.341128 190.805649 
C 173.723429 204.367975 170.831837 218.904989 170.831837 233.584744 
C 170.831837 248.2645 173.723429 262.801514 179.341128 276.36384 
C 184.958827 289.926166 193.193384 302.250051 203.573539 312.630205 
C 213.953694 323.01036 226.277579 331.244917 239.839905 336.862616 
C 253.402231 342.480316 267.939244 345.371907 282.619 345.371907 
C 297.298756 345.371907 311.835769 342.480316 325.398095 336.862616 
C 338.960421 331.244917 351.284306 323.01036 361.664461 312.630205 
C 372.044616 302.250051 380.279173 289.926166 385.896872 276.36384 
C 391.514571 262.801514 394.406163 248.2645 394.406163 233.584744 
" clip-path="url(#p4e3f0d7053)" style="fill: none; stroke-dasharray: 0.8,1.32; stroke-dashoffset: 0; stroke: #e0e0e0; stroke-width: 0.8"/>
     </g>
     <g id="text_15">
      <!-- 80 -->
      <g style="fill: #4d4d4d" transform="translate(385.896872 188.725962) scale(0.1 -0.1)">
       <defs>
        <path id="DejaVuSans-38" d="M 2034 2216 
Q 1584 2216 1326 1975 
Q 1069 1734 1069 1313 
Q 1069 891 1326 650 
Q 1584 409 2034 409 
Q 2484 409 2743 651 
Q 3003 894 3003 1313 
Q 3003 1734 2745 1975 
Q 2488 2216 2034 2216 
z
M 1403 2484 
Q 997 2584 770 2862 
Q 544 3141 544 3541 
Q 544 4100 942 4425 
Q 1341 4750 2034 4750 
Q 2731 4750 3128 4425 
Q 3525 4100 3525 3541 
Q 3525 3141 3298 2862 
Q 3072 2584 2669 2484 
Q 3125 2378 3379 2068 
Q 3634 1759 3634 1313 
Q 3634 634 3220 271 
Q 2806 -91 2034 -91 
Q 1263 -91 848 271 
Q 434 634 434 1313 
Q 434 1759 690 2068 
Q 947 2378 1403 2484 
z
M 1172 3481 
Q 1172 3119 1398 2916 
Q 1625 2713 2034 2713 
Q 2441 2713 2670 2916 
Q 2900 3119 2900 3481 
Q 2900 3844 2670 4047 
Q 2441 4250 2034 4250 
Q 1625 4250 1398 4047 
Q 1172 3844 1172 3481 
z
" transform="scale(0.015625)"/>
       </defs>
       <use xlink:href="#DejaVuSans-38"/>
       <use xlink:href="#DejaVuSans-30" x="63.623047"/>
      </g>
     </g>
    </g>
    <g id="ytick_6">
     <g id="line2d_16">
      <path d="M 422.352954 233.584744 
C 422.352954 215.23505 418.738464 197.063783 411.71634 180.110875 
C 404.694216 163.157968 394.40102 147.753112 381.425826 134.777918 
C 368.450633 121.802725 353.045776 111.509529 336.092869 104.487405 
C 319.139962 97.46528 300.968695 93.850791 282.619 93.850791 
C 264.269305 93.850791 246.098038 97.46528 229.145131 104.487405 
C 212.192224 111.509529 196.787367 121.802725 183.812174 134.777918 
C 170.83698 147.753112 160.543784 163.157968 153.52166 180.110875 
C 146.499536 197.063783 142.885046 215.23505 142.885046 233.584744 
C 142.885046 251.934439 146.499536 270.105706 153.52166 287.058614 
C 160.543784 304.011521 170.83698 319.416377 183.812174 332.391571 
C 196.787367 345.366764 212.192224 355.65996 229.145131 362.682084 
C 246.098038 369.704208 264.269305 373.318698 282.619 373.318698 
C 300.968695 373.318698 319.139962 369.704208 336.092869 362.682084 
C 353.045776 355.65996 368.450633 345.366764 381.425826 332.391571 
C 394.40102 319.416377 404.694216 304.011521 411.71634 287.058614 
C 418.738464 270.105706 422.352954 251.934439 422.352954 233.584744 
" clip-path="url(#p4e3f0d7053)" style="fill: none; stroke-dasharray: 0.8,1.32; stroke-dashoffset: 0; stroke: #e0e0e0; stroke-width: 0.8"/>
     </g>
     <g id="text_16">
      <!-- 90 -->
      <g style="fill: #4d4d4d" transform="translate(411.71634 178.031188) scale(0.1 -0.1)">
       <defs>
        <path id="DejaVuSans-39" d="M 703 97 
L 703 672 
Q 941 559 1184 500 
Q 1428 441 1663 441 
Q 2288 441 2617 861 
Q 2947 1281 2994 2138 
Q 2813 1869 2534 1725 
Q 2256 1581 1919 1581 
Q 1219 1581 811 2004 
Q 403 2428 403 3163 
Q 403 3881 828 4315 
Q 1253 4750 1959 4750 
Q 2769 4750 3195 4129 
Q 3622 3509 3622 2328 
Q 3622 1225 3098 567 
Q 2575 -91 1691 -91 
Q 1453 -91 1209 -44 
Q 966 3 703 97 
z
M 1959 2075 
Q 2384 2075 2632 2365 
Q 2881 2656 2881 3163 
Q 2881 3666 2632 3958 
Q 2384 4250 1959 4250 
Q 1534 4250 1286 3958 
Q 1038 3666 1038 3163 
Q 1038 2656 1286 2365 
Q 1534 2075 1959 2075 
z
" transform="scale(0.015625)"/>
       </defs>
       <use xlink:href="#DejaVuSans-39"/>
       <use xlink:href="#DejaVuSans-30" x="63.623047"/>
      </g>
     </g>
    </g>
    <g id="ytick_7">
     <g id="line2d_17">
      <path d="M 450.299744 233.584744 
C 450.299744 211.565111 445.962357 189.75959 437.535808 169.416102 
C 429.109259 149.072613 416.757424 130.586785 401.187192 115.016553 
C 385.616959 99.446321 367.131132 87.094486 346.787643 78.667937 
C 326.444154 70.241388 304.638634 65.904 282.619 65.904 
C 260.599366 65.904 238.793846 70.241388 218.450357 78.667937 
C 198.106868 87.094486 179.621041 99.446321 164.050808 115.016553 
C 148.480576 130.586785 136.128741 149.072613 127.702192 169.416102 
C 119.275643 189.75959 114.938256 211.565111 114.938256 233.584744 
C 114.938256 255.604378 119.275643 277.409899 127.702192 297.753387 
C 136.128741 318.096876 148.480576 336.582704 164.050808 352.152936 
C 179.621041 367.723168 198.106868 380.075003 218.450357 388.501552 
C 238.793846 396.928101 260.599366 401.265489 282.619 401.265489 
C 304.638634 401.265489 326.444154 396.928101 346.787643 388.501552 
C 367.131132 380.075003 385.616959 367.723168 401.187192 352.152936 
C 416.757424 336.582704 429.109259 318.096876 437.535808 297.753387 
C 445.962357 277.409899 450.299744 255.604378 450.299744 233.584744 
" clip-path="url(#p4e3f0d7053)" style="fill: none; stroke-dasharray: 0.8,1.32; stroke-dashoffset: 0; stroke: #e0e0e0; stroke-width: 0.8"/>
     </g>
     <g id="text_17">
      <!-- 100 -->
      <g style="fill: #4d4d4d" transform="translate(437.535808 167.336414) scale(0.1 -0.1)">
       <defs>
        <path id="DejaVuSans-31" d="M 794 531 
L 1825 531 
L 1825 4091 
L 703 3866 
L 703 4441 
L 1819 4666 
L 2450 4666 
L 2450 531 
L 3481 531 
L 3481 0 
L 794 0 
L 794 531 
z
" transform="scale(0.015625)"/>
       </defs>
       <use xlink:href="#DejaVuSans-31"/>
       <use xlink:href="#DejaVuSans-30" x="63.623047"/>
       <use xlink:href="#DejaVuSans-30" x="127.246094"/>
      </g>
     </g>
    </g>
   </g>
   <g id="line2d_18">
    <path d="M 390.493612 233.584744 
L 340.499137 191.532363 
L 300.927391 177.237312 
L 252.651965 141.355693 
L 176.128591 156.214934 
L 179.495342 233.584744 
L 201.90334 292.228104 
L 238.316149 369.934899 
L 310.772468 320.232211 
L 405.614292 322.946055 
L 390.493612 233.584744 
" clip-path="url(#p4e3f0d7053)" style="fill: none; stroke: #fc8d62; stroke-width: 2; stroke-linecap: square"/>
   </g>
   <g id="line2d_19">
    <path d="M 405.025943 233.584744 
L 336.655534 194.324904 
L 300.150148 179.62942 
L 251.270199 137.103056 
L 165.049971 148.165845 
L 175.303324 233.584744 
L 200.094585 293.542241 
L 238.316149 369.934899 
L 313.88144 329.800643 
L 398.15318 317.52524 
L 405.025943 233.584744 
" clip-path="url(#p4e3f0d7053)" style="fill: none; stroke: #8da0cb; stroke-width: 2; stroke-linecap: square"/>
   </g>
   <g id="line2d_20">
    <path d="M 410.056366 233.584744 
L 339.142572 192.517966 
L 302.309156 172.984676 
L 251.44292 137.634636 
L 155.554011 141.266626 
L 166.36035 233.584744 
L 198.511925 294.692111 
L 238.229789 370.200689 
L 316.904052 339.103285 
L 398.605369 317.853774 
L 410.056366 233.584744 
" clip-path="url(#p4e3f0d7053)" style="fill: none; stroke: #66e2a5; stroke-width: 2; stroke-linecap: square"/>
   </g>
   <g id="patch_6">
    <path d="M 450.299744 233.584744 
C 450.299744 211.565111 445.962357 189.75959 437.535808 169.416102 
C 429.109259 149.072613 416.757424 130.586785 401.187192 115.016553 
C 385.616959 99.446321 367.131132 87.094486 346.787643 78.667937 
C 326.444154 70.241388 304.638634 65.904 282.619 65.904 
C 260.599366 65.904 238.793846 70.241388 218.450357 78.667937 
C 198.106868 87.094486 179.621041 99.446321 164.050808 115.016553 
C 148.480576 130.586785 136.128741 149.072613 127.702192 169.416102 
C 119.275643 189.75959 114.938256 211.565111 114.938256 233.584744 
C 114.938256 255.604378 119.275643 277.409899 127.702192 297.753387 
C 136.128741 318.096876 148.480576 336.582704 164.050808 352.152936 
C 179.621041 367.723168 198.106868 380.075003 218.450357 388.501552 
C 238.793846 396.928101 260.599366 401.265489 282.619 401.265489 
C 304.638634 401.265489 326.444154 396.928101 346.787643 388.501552 
C 367.131132 380.075003 385.616959 367.723168 401.187192 352.152936 
C 416.757424 336.582704 429.109259 318.096876 437.535808 297.753387 
C 445.962357 277.409899 450.299744 255.604378 450.299744 233.584744 
" style="fill: none; stroke: #000000; stroke-width: 0.8; stroke-linejoin: miter; stroke-linecap: square"/>
   </g>
   <g id="text_18">
    <!-- Evaluation on MARBLE Benchmark -->
    <g style="fill: #4d4d4d" transform="translate(89.059625 26.367851) scale(0.2 -0.2)">
     <defs>
      <path id="DejaVuSans-Bold-45" d="M 588 4666 
L 3834 4666 
L 3834 3756 
L 1791 3756 
L 1791 2888 
L 3713 2888 
L 3713 1978 
L 1791 1978 
L 1791 909 
L 3903 909 
L 3903 0 
L 588 0 
L 588 4666 
z
" transform="scale(0.015625)"/>
      <path id="DejaVuSans-Bold-76" d="M 97 3500 
L 1216 3500 
L 2088 1081 
L 2956 3500 
L 4078 3500 
L 2700 0 
L 1472 0 
L 97 3500 
z
" transform="scale(0.015625)"/>
      <path id="DejaVuSans-Bold-61" d="M 2106 1575 
Q 1756 1575 1579 1456 
Q 1403 1338 1403 1106 
Q 1403 894 1545 773 
Q 1688 653 1941 653 
Q 2256 653 2472 879 
Q 2688 1106 2688 1447 
L 2688 1575 
L 2106 1575 
z
M 3816 1997 
L 3816 0 
L 2688 0 
L 2688 519 
Q 2463 200 2181 54 
Q 1900 -91 1497 -91 
Q 953 -91 614 226 
Q 275 544 275 1050 
Q 275 1666 698 1953 
Q 1122 2241 2028 2241 
L 2688 2241 
L 2688 2328 
Q 2688 2594 2478 2717 
Q 2269 2841 1825 2841 
Q 1466 2841 1156 2769 
Q 847 2697 581 2553 
L 581 3406 
Q 941 3494 1303 3539 
Q 1666 3584 2028 3584 
Q 2975 3584 3395 3211 
Q 3816 2838 3816 1997 
z
" transform="scale(0.015625)"/>
      <path id="DejaVuSans-Bold-6c" d="M 538 4863 
L 1656 4863 
L 1656 0 
L 538 0 
L 538 4863 
z
" transform="scale(0.015625)"/>
      <path id="DejaVuSans-Bold-75" d="M 500 1363 
L 500 3500 
L 1625 3500 
L 1625 3150 
Q 1625 2866 1622 2436 
Q 1619 2006 1619 1863 
Q 1619 1441 1641 1255 
Q 1663 1069 1716 984 
Q 1784 875 1895 815 
Q 2006 756 2150 756 
Q 2500 756 2700 1025 
Q 2900 1294 2900 1772 
L 2900 3500 
L 4019 3500 
L 4019 0 
L 2900 0 
L 2900 506 
Q 2647 200 2364 54 
Q 2081 -91 1741 -91 
Q 1134 -91 817 281 
Q 500 653 500 1363 
z
" transform="scale(0.015625)"/>
      <path id="DejaVuSans-Bold-74" d="M 1759 4494 
L 1759 3500 
L 2913 3500 
L 2913 2700 
L 1759 2700 
L 1759 1216 
Q 1759 972 1856 886 
Q 1953 800 2241 800 
L 2816 800 
L 2816 0 
L 1856 0 
Q 1194 0 917 276 
Q 641 553 641 1216 
L 641 2700 
L 84 2700 
L 84 3500 
L 641 3500 
L 641 4494 
L 1759 4494 
z
" transform="scale(0.015625)"/>
      <path id="DejaVuSans-Bold-69" d="M 538 3500 
L 1656 3500 
L 1656 0 
L 538 0 
L 538 3500 
z
M 538 4863 
L 1656 4863 
L 1656 3950 
L 538 3950 
L 538 4863 
z
" transform="scale(0.015625)"/>
      <path id="DejaVuSans-Bold-6f" d="M 2203 2784 
Q 1831 2784 1636 2517 
Q 1441 2250 1441 1747 
Q 1441 1244 1636 976 
Q 1831 709 2203 709 
Q 2569 709 2762 976 
Q 2956 1244 2956 1747 
Q 2956 2250 2762 2517 
Q 2569 2784 2203 2784 
z
M 2203 3584 
Q 3106 3584 3614 3096 
Q 4122 2609 4122 1747 
Q 4122 884 3614 396 
Q 3106 -91 2203 -91 
Q 1297 -91 786 396 
Q 275 884 275 1747 
Q 275 2609 786 3096 
Q 1297 3584 2203 3584 
z
" transform="scale(0.015625)"/>
      <path id="DejaVuSans-Bold-6e" d="M 4056 2131 
L 4056 0 
L 2931 0 
L 2931 347 
L 2931 1631 
Q 2931 2084 2911 2256 
Q 2891 2428 2841 2509 
Q 2775 2619 2662 2680 
Q 2550 2741 2406 2741 
Q 2056 2741 1856 2470 
Q 1656 2200 1656 1722 
L 1656 0 
L 538 0 
L 538 3500 
L 1656 3500 
L 1656 2988 
Q 1909 3294 2193 3439 
Q 2478 3584 2822 3584 
Q 3428 3584 3742 3212 
Q 4056 2841 4056 2131 
z
" transform="scale(0.015625)"/>
      <path id="DejaVuSans-Bold-20" transform="scale(0.015625)"/>
      <path id="DejaVuSans-Bold-4d" d="M 588 4666 
L 2119 4666 
L 3181 2169 
L 4250 4666 
L 5778 4666 
L 5778 0 
L 4641 0 
L 4641 3413 
L 3566 897 
L 2803 897 
L 1728 3413 
L 1728 0 
L 588 0 
L 588 4666 
z
" transform="scale(0.015625)"/>
      <path id="DejaVuSans-Bold-41" d="M 3419 850 
L 1538 850 
L 1241 0 
L 31 0 
L 1759 4666 
L 3194 4666 
L 4922 0 
L 3713 0 
L 3419 850 
z
M 1838 1716 
L 3116 1716 
L 2478 3572 
L 1838 1716 
z
" transform="scale(0.015625)"/>
      <path id="DejaVuSans-Bold-52" d="M 2297 2597 
Q 2675 2597 2839 2737 
Q 3003 2878 3003 3200 
Q 3003 3519 2839 3656 
Q 2675 3794 2297 3794 
L 1791 3794 
L 1791 2597 
L 2297 2597 
z
M 1791 1766 
L 1791 0 
L 588 0 
L 588 4666 
L 2425 4666 
Q 3347 4666 3776 4356 
Q 4206 4047 4206 3378 
Q 4206 2916 3982 2619 
Q 3759 2322 3309 2181 
Q 3556 2125 3751 1926 
Q 3947 1728 4147 1325 
L 4800 0 
L 3519 0 
L 2950 1159 
Q 2778 1509 2601 1637 
Q 2425 1766 2131 1766 
L 1791 1766 
z
" transform="scale(0.015625)"/>
      <path id="DejaVuSans-Bold-42" d="M 2456 2859 
Q 2741 2859 2887 2984 
Q 3034 3109 3034 3353 
Q 3034 3594 2887 3720 
Q 2741 3847 2456 3847 
L 1791 3847 
L 1791 2859 
L 2456 2859 
z
M 2497 819 
Q 2859 819 3042 972 
Q 3225 1125 3225 1434 
Q 3225 1738 3044 1889 
Q 2863 2041 2497 2041 
L 1791 2041 
L 1791 819 
L 2497 819 
z
M 3616 2497 
Q 4003 2384 4215 2081 
Q 4428 1778 4428 1338 
Q 4428 663 3972 331 
Q 3516 0 2584 0 
L 588 0 
L 588 4666 
L 2394 4666 
Q 3366 4666 3802 4372 
Q 4238 4078 4238 3431 
Q 4238 3091 4078 2852 
Q 3919 2613 3616 2497 
z
" transform="scale(0.015625)"/>
      <path id="DejaVuSans-Bold-4c" d="M 588 4666 
L 1791 4666 
L 1791 909 
L 3903 909 
L 3903 0 
L 588 0 
L 588 4666 
z
" transform="scale(0.015625)"/>
      <path id="DejaVuSans-Bold-65" d="M 4031 1759 
L 4031 1441 
L 1416 1441 
Q 1456 1047 1700 850 
Q 1944 653 2381 653 
Q 2734 653 3104 758 
Q 3475 863 3866 1075 
L 3866 213 
Q 3469 63 3072 -14 
Q 2675 -91 2278 -91 
Q 1328 -91 801 392 
Q 275 875 275 1747 
Q 275 2603 792 3093 
Q 1309 3584 2216 3584 
Q 3041 3584 3536 3087 
Q 4031 2591 4031 1759 
z
M 2881 2131 
Q 2881 2450 2695 2645 
Q 2509 2841 2209 2841 
Q 1884 2841 1681 2658 
Q 1478 2475 1428 2131 
L 2881 2131 
z
" transform="scale(0.015625)"/>
      <path id="DejaVuSans-Bold-63" d="M 3366 3391 
L 3366 2478 
Q 3138 2634 2908 2709 
Q 2678 2784 2431 2784 
Q 1963 2784 1702 2511 
Q 1441 2238 1441 1747 
Q 1441 1256 1702 982 
Q 1963 709 2431 709 
Q 2694 709 2930 787 
Q 3166 866 3366 1019 
L 3366 103 
Q 3103 6 2833 -42 
Q 2563 -91 2291 -91 
Q 1344 -91 809 395 
Q 275 881 275 1747 
Q 275 2613 809 3098 
Q 1344 3584 2291 3584 
Q 2566 3584 2833 3536 
Q 3100 3488 3366 3391 
z
" transform="scale(0.015625)"/>
      <path id="DejaVuSans-Bold-68" d="M 4056 2131 
L 4056 0 
L 2931 0 
L 2931 347 
L 2931 1625 
Q 2931 2084 2911 2256 
Q 2891 2428 2841 2509 
Q 2775 2619 2662 2680 
Q 2550 2741 2406 2741 
Q 2056 2741 1856 2470 
Q 1656 2200 1656 1722 
L 1656 0 
L 538 0 
L 538 4863 
L 1656 4863 
L 1656 2988 
Q 1909 3294 2193 3439 
Q 2478 3584 2822 3584 
Q 3428 3584 3742 3212 
Q 4056 2841 4056 2131 
z
" transform="scale(0.015625)"/>
      <path id="DejaVuSans-Bold-6d" d="M 3781 2919 
Q 3994 3244 4286 3414 
Q 4578 3584 4928 3584 
Q 5531 3584 5847 3212 
Q 6163 2841 6163 2131 
L 6163 0 
L 5038 0 
L 5038 1825 
Q 5041 1866 5042 1909 
Q 5044 1953 5044 2034 
Q 5044 2406 4934 2573 
Q 4825 2741 4581 2741 
Q 4263 2741 4089 2478 
Q 3916 2216 3909 1719 
L 3909 0 
L 2784 0 
L 2784 1825 
Q 2784 2406 2684 2573 
Q 2584 2741 2328 2741 
Q 2006 2741 1831 2477 
Q 1656 2213 1656 1722 
L 1656 0 
L 531 0 
L 531 3500 
L 1656 3500 
L 1656 2988 
Q 1863 3284 2130 3434 
Q 2397 3584 2719 3584 
Q 3081 3584 3359 3409 
Q 3638 3234 3781 2919 
z
" transform="scale(0.015625)"/>
      <path id="DejaVuSans-Bold-72" d="M 3138 2547 
Q 2991 2616 2845 2648 
Q 2700 2681 2553 2681 
Q 2122 2681 1889 2404 
Q 1656 2128 1656 1613 
L 1656 0 
L 538 0 
L 538 3500 
L 1656 3500 
L 1656 2925 
Q 1872 3269 2151 3426 
Q 2431 3584 2822 3584 
Q 2878 3584 2943 3579 
Q 3009 3575 3134 3559 
L 3138 2547 
z
" transform="scale(0.015625)"/>
      <path id="DejaVuSans-Bold-6b" d="M 538 4863 
L 1656 4863 
L 1656 2216 
L 2944 3500 
L 4244 3500 
L 2534 1894 
L 4378 0 
L 3022 0 
L 1656 1459 
L 1656 0 
L 538 0 
L 538 4863 
z
" transform="scale(0.015625)"/>
     </defs>
     <use xlink:href="#DejaVuSans-Bold-45"/>
     <use xlink:href="#DejaVuSans-Bold-76" x="68.310547"/>
     <use xlink:href="#DejaVuSans-Bold-61" x="133.496094"/>
     <use xlink:href="#DejaVuSans-Bold-6c" x="200.976562"/>
     <use xlink:href="#DejaVuSans-Bold-75" x="235.253906"/>
     <use xlink:href="#DejaVuSans-Bold-61" x="306.445312"/>
     <use xlink:href="#DejaVuSans-Bold-74" x="373.925781"/>
     <use xlink:href="#DejaVuSans-Bold-69" x="421.728516"/>
     <use xlink:href="#DejaVuSans-Bold-6f" x="456.005859"/>
     <use xlink:href="#DejaVuSans-Bold-6e" x="524.707031"/>
     <use xlink:href="#DejaVuSans-Bold-20" x="595.898438"/>
     <use xlink:href="#DejaVuSans-Bold-6f" x="630.712891"/>
     <use xlink:href="#DejaVuSans-Bold-6e" x="699.414062"/>
     <use xlink:href="#DejaVuSans-Bold-20" x="770.605469"/>
     <use xlink:href="#DejaVuSans-Bold-4d" x="805.419922"/>
     <use xlink:href="#DejaVuSans-Bold-41" x="904.931641"/>
     <use xlink:href="#DejaVuSans-Bold-52" x="982.324219"/>
     <use xlink:href="#DejaVuSans-Bold-42" x="1059.326172"/>
     <use xlink:href="#DejaVuSans-Bold-4c" x="1135.546875"/>
     <use xlink:href="#DejaVuSans-Bold-45" x="1199.267578"/>
     <use xlink:href="#DejaVuSans-Bold-20" x="1267.578125"/>
     <use xlink:href="#DejaVuSans-Bold-42" x="1302.392578"/>
     <use xlink:href="#DejaVuSans-Bold-65" x="1378.613281"/>
     <use xlink:href="#DejaVuSans-Bold-6e" x="1446.435547"/>
     <use xlink:href="#DejaVuSans-Bold-63" x="1517.626953"/>
     <use xlink:href="#DejaVuSans-Bold-68" x="1576.904297"/>
     <use xlink:href="#DejaVuSans-Bold-6d" x="1648.095703"/>
     <use xlink:href="#DejaVuSans-Bold-61" x="1752.294922"/>
     <use xlink:href="#DejaVuSans-Bold-72" x="1819.775391"/>
     <use xlink:href="#DejaVuSans-Bold-6b" x="1869.091797"/>
    </g>
   </g>
   <g id="legend_1">
    <g id="line2d_21">
     <path d="M 414.721316 48.085976 
L 426.721316 48.085976 
L 438.721316 48.085976 
" style="fill: none; stroke: #fc8d62; stroke-width: 2; stroke-linecap: square"/>
    </g>
    <g id="text_19">
     <!-- MERT -->
     <g transform="translate(448.321316 52.285976) scale(0.12 -0.12)">
      <defs>
       <path id="DejaVuSans-4d" d="M 628 4666 
L 1569 4666 
L 2759 1491 
L 3956 4666 
L 4897 4666 
L 4897 0 
L 4281 0 
L 4281 4097 
L 3078 897 
L 2444 897 
L 1241 4097 
L 1241 0 
L 628 0 
L 628 4666 
z
" transform="scale(0.015625)"/>
      </defs>
      <use xlink:href="#DejaVuSans-4d"/>
      <use xlink:href="#DejaVuSans-45" x="86.279297"/>
      <use xlink:href="#DejaVuSans-52" x="149.462891"/>
      <use xlink:href="#DejaVuSans-54" x="211.695312"/>
     </g>
    </g>
    <g id="line2d_22">
     <path d="M 414.721316 65.699726 
L 426.721316 65.699726 
L 438.721316 65.699726 
" style="fill: none; stroke: #8da0cb; stroke-width: 2; stroke-linecap: square"/>
    </g>
    <g id="text_20">
     <!-- MusicFM (MSD) -->
     <g transform="translate(448.321316 69.899726) scale(0.12 -0.12)">
      <defs>
       <path id="DejaVuSans-46" d="M 628 4666 
L 3309 4666 
L 3309 4134 
L 1259 4134 
L 1259 2759 
L 3109 2759 
L 3109 2228 
L 1259 2228 
L 1259 0 
L 628 0 
L 628 4666 
z
" transform="scale(0.015625)"/>
       <path id="DejaVuSans-28" d="M 1984 4856 
Q 1566 4138 1362 3434 
Q 1159 2731 1159 2009 
Q 1159 1288 1364 580 
Q 1569 -128 1984 -844 
L 1484 -844 
Q 1016 -109 783 600 
Q 550 1309 550 2009 
Q 550 2706 781 3412 
Q 1013 4119 1484 4856 
L 1984 4856 
z
" transform="scale(0.015625)"/>
       <path id="DejaVuSans-44" d="M 1259 4147 
L 1259 519 
L 2022 519 
Q 2988 519 3436 956 
Q 3884 1394 3884 2338 
Q 3884 3275 3436 3711 
Q 2988 4147 2022 4147 
L 1259 4147 
z
M 628 4666 
L 1925 4666 
Q 3281 4666 3915 4102 
Q 4550 3538 4550 2338 
Q 4550 1131 3912 565 
Q 3275 0 1925 0 
L 628 0 
L 628 4666 
z
" transform="scale(0.015625)"/>
       <path id="DejaVuSans-29" d="M 513 4856 
L 1013 4856 
Q 1481 4119 1714 3412 
Q 1947 2706 1947 2009 
Q 1947 1309 1714 600 
Q 1481 -109 1013 -844 
L 513 -844 
Q 928 -128 1133 580 
Q 1338 1288 1338 2009 
Q 1338 2731 1133 3434 
Q 928 4138 513 4856 
z
" transform="scale(0.015625)"/>
      </defs>
      <use xlink:href="#DejaVuSans-4d"/>
      <use xlink:href="#DejaVuSans-75" x="86.279297"/>
      <use xlink:href="#DejaVuSans-73" x="149.658203"/>
      <use xlink:href="#DejaVuSans-69" x="201.757812"/>
      <use xlink:href="#DejaVuSans-63" x="229.541016"/>
      <use xlink:href="#DejaVuSans-46" x="284.521484"/>
      <use xlink:href="#DejaVuSans-4d" x="342.041016"/>
      <use xlink:href="#DejaVuSans-20" x="428.320312"/>
      <use xlink:href="#DejaVuSans-28" x="460.107422"/>
      <use xlink:href="#DejaVuSans-4d" x="499.121094"/>
      <use xlink:href="#DejaVuSans-53" x="585.400391"/>
      <use xlink:href="#DejaVuSans-44" x="648.876953"/>
      <use xlink:href="#DejaVuSans-29" x="725.878906"/>
     </g>
    </g>
    <g id="line2d_23">
     <path d="M 414.721316 83.313476 
L 426.721316 83.313476 
L 438.721316 83.313476 
" style="fill: none; stroke: #66e2a5; stroke-width: 2; stroke-linecap: square"/>
    </g>
    <g id="text_21">
     <!-- MuQ (Ours) -->
     <g transform="translate(448.321316 87.513476) scale(0.12 -0.12)">
      <defs>
       <path id="DejaVuSans-51" d="M 2522 4238 
Q 1834 4238 1429 3725 
Q 1025 3213 1025 2328 
Q 1025 1447 1429 934 
Q 1834 422 2522 422 
Q 3209 422 3611 934 
Q 4013 1447 4013 2328 
Q 4013 3213 3611 3725 
Q 3209 4238 2522 4238 
z
M 3406 84 
L 4238 -825 
L 3475 -825 
L 2784 -78 
Q 2681 -84 2626 -87 
Q 2572 -91 2522 -91 
Q 1538 -91 948 567 
Q 359 1225 359 2328 
Q 359 3434 948 4092 
Q 1538 4750 2522 4750 
Q 3503 4750 4090 4092 
Q 4678 3434 4678 2328 
Q 4678 1516 4351 937 
Q 4025 359 3406 84 
z
" transform="scale(0.015625)"/>
      </defs>
      <use xlink:href="#DejaVuSans-4d"/>
      <use xlink:href="#DejaVuSans-75" x="86.279297"/>
      <use xlink:href="#DejaVuSans-51" x="149.658203"/>
      <use xlink:href="#DejaVuSans-20" x="228.369141"/>
      <use xlink:href="#DejaVuSans-28" x="260.15625"/>
      <use xlink:href="#DejaVuSans-4f" x="299.169922"/>
      <use xlink:href="#DejaVuSans-75" x="377.880859"/>
      <use xlink:href="#DejaVuSans-72" x="441.259766"/>
      <use xlink:href="#DejaVuSans-73" x="482.373047"/>
      <use xlink:href="#DejaVuSans-29" x="534.472656"/>
     </g>
    </g>
   </g>
  </g>
 </g>
 <defs>
  <clipPath id="p4e3f0d7053">
   <path d="M 450.299744 233.584744 
C 450.299744 211.565111 445.962357 189.75959 437.535808 169.416102 
C 429.109259 149.072613 416.757424 130.586785 401.187192 115.016553 
C 385.616959 99.446321 367.131132 87.094486 346.787643 78.667937 
C 326.444154 70.241388 304.638634 65.904 282.619 65.904 
C 260.599366 65.904 238.793846 70.241388 218.450357 78.667937 
C 198.106868 87.094486 179.621041 99.446321 164.050808 115.016553 
C 148.480576 130.586785 136.128741 149.072613 127.702192 169.416102 
C 119.275643 189.75959 114.938256 211.565111 114.938256 233.584744 
C 114.938256 255.604378 119.275643 277.409899 127.702192 297.753387 
C 136.128741 318.096876 148.480576 336.582704 164.050808 352.152936 
C 179.621041 367.723168 198.106868 380.075003 218.450357 388.501552 
C 238.793846 396.928101 260.599366 401.265489 282.619 401.265489 
C 304.638634 401.265489 326.444154 396.928101 346.787643 388.501552 
C 367.131132 380.075003 385.616959 367.723168 401.187192 352.152936 
C 416.757424 336.582704 429.109259 318.096876 437.535808 297.753387 
C 445.962357 277.409899 450.299744 255.604378 450.299744 233.584744 
M 282.619 233.584744 
C 282.619 233.584744 282.619 233.584744 282.619 233.584744 
C 282.619 233.584744 282.619 233.584744 282.619 233.584744 
C 282.619 233.584744 282.619 233.584744 282.619 233.584744 
C 282.619 233.584744 282.619 233.584744 282.619 233.584744 
C 282.619 233.584744 282.619 233.584744 282.619 233.584744 
C 282.619 233.584744 282.619 233.584744 282.619 233.584744 
C 282.619 233.584744 282.619 233.584744 282.619 233.584744 
C 282.619 233.584744 282.619 233.584744 282.619 233.584744 
C 282.619 233.584744 282.619 233.584744 282.619 233.584744 
C 282.619 233.584744 282.619 233.584744 282.619 233.584744 
C 282.619 233.584744 282.619 233.584744 282.619 233.584744 
C 282.619 233.584744 282.619 233.584744 282.619 233.584744 
C 282.619 233.584744 282.619 233.584744 282.619 233.584744 
C 282.619 233.584744 282.619 233.584744 282.619 233.584744 
C 282.619 233.584744 282.619 233.584744 282.619 233.584744 
C 282.619 233.584744 282.619 233.584744 282.619 233.584744 
z
"/>
  </clipPath>
 </defs>
</svg>
